<svg width="13" height="20" viewBox="0 0 13 20" fill="none" xmlns="http://www.w3.org/2000/svg">
<path id="Vector" fill-rule="evenodd" clip-rule="evenodd" d="M0.499954 0C0.367358 0 0.240193 0.0526737 0.146433 0.146433C0.0526737 0.240193 0 0.367358 0 0.499954V1.99982C0 2.13241 0.0526737 2.25958 0.146433 2.35334C0.240193 2.4471 0.367358 2.49977 0.499954 2.49977C0.776071 2.49977 0.999908 2.72361 0.999908 2.99972V3.17441C0.999908 3.45115 0.797172 3.68439 0.637455 3.91039C0.547913 4.0371 0.499873 4.18845 0.499954 4.3436V17.4984C0.499523 18.0845 0.705022 18.652 1.08055 19.102C1.45608 19.5519 1.97776 19.8556 2.55445 19.96C3.13114 20.0644 3.72618 19.9629 4.23561 19.6731C5.13966 19.1589 4.74205 17.9583 4.20792 17.0659C4.1263 16.9295 4.05107 16.789 3.98257 16.6449C3.66394 15.9743 3.49897 15.2411 3.49968 14.4987C3.49909 13.7224 3.67955 12.9567 4.0267 12.2624C4.67929 10.9572 5.49949 9.64 5.49949 8.18075V4.3426C5.49947 4.18754 5.45138 4.03629 5.36185 3.90969C5.20214 3.68387 4.99954 3.45075 4.99954 3.17416V2.99972C4.99954 2.72361 5.22338 2.49977 5.49949 2.49977C5.63209 2.49977 5.75925 2.4471 5.85301 2.35334C5.94677 2.25958 5.99945 2.13241 5.99945 1.99982V0.499954C5.99945 0.367358 5.94677 0.240193 5.85301 0.146433C5.75925 0.0526737 5.63209 0 5.49949 0H0.499954ZM1.99982 3.84365V3.49968C1.99982 2.94744 2.44749 2.49977 2.99972 2.49977C3.55196 2.49977 3.99963 2.94744 3.99963 3.49968V3.84365C3.99965 3.99871 4.04774 4.14995 4.13728 4.27656C4.29698 4.50238 4.49958 4.7355 4.49958 5.01209V5.5649C4.49958 6.35713 3.85736 6.99935 3.06513 6.99935H2.93432C2.14209 6.99935 1.49986 6.35713 1.49986 5.5649V5.01234C1.49986 4.7356 1.7026 4.50235 1.86231 4.27635C1.95186 4.14965 1.9999 3.99879 1.99982 3.84365ZM10.0657 16.7723C9.95622 16.663 9.7859 16.648 9.64858 16.7192C9.51724 16.7873 9.38007 16.8435 9.23871 16.8872C9.10122 16.9298 8.99917 17.0519 8.99917 17.1958C8.99917 17.3629 9.14621 17.4921 9.28365 17.5872C9.30818 17.6042 9.3313 17.6234 9.35269 17.6448C9.44645 17.7386 9.49912 17.8657 9.49912 17.9983C9.49912 18.1309 9.44645 18.2581 9.35269 18.3519C9.25893 18.4456 9.13177 18.4983 8.99917 18.4983H7.99926C7.86667 18.4983 7.7395 18.4456 7.64574 18.3519C7.55198 18.2581 7.49931 18.1309 7.49931 17.9983C7.49931 17.8657 7.55198 17.7386 7.64574 17.6448C7.66713 17.6234 7.69025 17.6042 7.71478 17.5872C7.85222 17.4921 7.99926 17.3629 7.99926 17.1958C7.99926 17.0519 7.89721 16.9298 7.75972 16.8872C7.61836 16.8435 7.48119 16.7873 7.34985 16.7192C7.21253 16.648 7.04221 16.663 6.93276 16.7723C6.80713 16.8978 6.81996 17.1058 6.84263 17.2819C6.84553 17.3044 6.8469 17.3272 6.8467 17.3501C6.84557 17.4812 6.79299 17.6066 6.70029 17.6993C6.6076 17.792 6.4822 17.8446 6.35111 17.8457C6.22003 17.8468 6.09374 17.7964 5.99945 17.7054L5.29251 16.9984C5.20144 16.9041 5.15105 16.7779 5.15219 16.6468C5.15333 16.5157 5.20591 16.3903 5.2986 16.2976C5.3913 16.2049 5.51669 16.1523 5.64778 16.1512C5.6707 16.151 5.69348 16.1523 5.71596 16.1552C5.89208 16.1779 6.10007 16.1908 6.22555 16.0651C6.33487 15.9557 6.34988 15.7854 6.27868 15.648C6.21058 15.5167 6.15434 15.3795 6.11064 15.2382C6.06813 15.1007 5.94602 14.9986 5.80211 14.9986C5.63498 14.9986 5.50577 15.1457 5.41067 15.2831C5.3937 15.3076 5.37445 15.3308 5.35306 15.3521C5.2593 15.4459 5.13213 15.4986 4.99954 15.4986C4.86694 15.4986 4.73978 15.4459 4.64602 15.3521C4.55226 15.2584 4.49958 15.1312 4.49958 14.9986V13.9987C4.49958 13.8661 4.55226 13.7389 4.64602 13.6452C4.73978 13.5514 4.86694 13.4988 4.99954 13.4988C5.13213 13.4988 5.2593 13.5514 5.35306 13.6452C5.37443 13.6666 5.39366 13.6897 5.41062 13.7142C5.50577 13.8516 5.63502 13.9987 5.8022 13.9987C5.94608 13.9987 6.06818 13.8967 6.11064 13.7593C6.15465 13.6168 6.21098 13.4797 6.27852 13.3494C6.34973 13.212 6.3348 13.0416 6.22545 12.9321C6.10002 12.8065 5.89213 12.8193 5.71611 12.8421C5.69357 12.845 5.67075 12.8464 5.64778 12.8462C5.51669 12.845 5.3913 12.7924 5.2986 12.6997C5.20591 12.607 5.15333 12.4816 5.15219 12.3506C5.15105 12.2195 5.20144 12.0932 5.29251 11.9989L5.64148 11.6499L5.64598 11.6449C5.64763 11.6434 5.6493 11.6419 5.65098 11.6404L5.99945 11.292C6.04557 11.2442 6.10073 11.2061 6.16173 11.1799C6.22273 11.1537 6.28833 11.1399 6.35471 11.1393C6.4211 11.1388 6.48693 11.1514 6.54837 11.1766C6.60982 11.2017 6.66564 11.2388 6.71258 11.2858C6.75952 11.3327 6.79664 11.3885 6.82178 11.45C6.84692 11.5114 6.85957 11.5772 6.85899 11.6436C6.85842 11.71 6.84462 11.7756 6.81842 11.8366C6.77538 11.9368 6.76967 12.0621 6.84683 12.1392L6.93633 12.2286C7.0437 12.3358 7.2108 12.3506 7.34538 12.2804C7.47808 12.2113 7.61675 12.1543 7.75972 12.1101C7.89721 12.0676 7.99926 11.9455 7.99926 11.8016C7.99926 11.6344 7.85222 11.5052 7.71478 11.4101C7.69025 11.3931 7.66713 11.3739 7.64574 11.3525C7.55198 11.2587 7.49931 11.1316 7.49931 10.999C7.49931 10.8664 7.55198 10.7392 7.64574 10.6455C7.7395 10.5517 7.86667 10.499 7.99926 10.499H8.99917C9.13177 10.499 9.25893 10.5517 9.35269 10.6455C9.44645 10.7392 9.49912 10.8664 9.49912 10.999C9.49912 11.1316 9.44645 11.2587 9.35269 11.3525C9.33133 11.3739 9.30822 11.3931 9.28372 11.4101C9.14626 11.5052 8.99917 11.6345 8.99917 11.8016C8.99917 11.9455 9.10115 12.0676 9.23862 12.1101C9.38111 12.1541 9.51821 12.2104 9.64851 12.278C9.78588 12.3492 9.95629 12.3342 10.0658 12.2249C10.1914 12.0995 10.1785 11.8916 10.1558 11.7156C10.1529 11.693 10.1515 11.6702 10.1517 11.6472C10.1529 11.5161 10.2054 11.3907 10.2981 11.298C10.3908 11.2054 10.5162 11.1528 10.6473 11.1516C10.7784 11.1505 10.9047 11.2009 10.999 11.292L11.7059 11.9989C11.797 12.0932 11.8474 12.2195 11.8462 12.3506C11.8451 12.4816 11.7925 12.607 11.6998 12.6997C11.6071 12.7924 11.4817 12.845 11.3507 12.8462C11.3277 12.8464 11.305 12.845 11.2825 12.8421C11.1064 12.8194 10.8983 12.8066 10.7728 12.9322C10.6635 13.0417 10.6485 13.212 10.7197 13.3493C10.7872 13.4796 10.8436 13.6168 10.8877 13.7593C10.9303 13.8967 11.0524 13.9987 11.1962 13.9987C11.3634 13.9987 11.4927 13.8516 11.5878 13.7142C11.6048 13.6897 11.624 13.6666 11.6454 13.6452C11.7391 13.5514 11.8663 13.4988 11.9989 13.4988C12.1315 13.4988 12.2587 13.5514 12.3524 13.6452C12.4462 13.7389 12.4988 13.8661 12.4988 13.9987V14.9986C12.4988 15.1312 12.4462 15.2584 12.3524 15.3521C12.2587 15.4459 12.1315 15.4986 11.9989 15.4986C11.8663 15.4986 11.7391 15.4459 11.6454 15.3521C11.624 15.3308 11.6047 15.3076 11.5878 15.2831C11.4927 15.1457 11.3635 14.9986 11.1963 14.9986C11.0524 14.9986 10.9303 15.1007 10.8878 15.2382C10.8436 15.3811 10.7866 15.5198 10.7174 15.6525C10.6473 15.7871 10.6621 15.9542 10.7693 16.0616L10.8587 16.1511C10.9358 16.2282 11.0611 16.2225 11.1613 16.1795C11.2223 16.1533 11.2879 16.1395 11.3543 16.1389C11.4206 16.1383 11.4865 16.151 11.5479 16.1761C11.6094 16.2012 11.6652 16.2384 11.7121 16.2853C11.7591 16.3322 11.7962 16.3881 11.8213 16.4495C11.8465 16.5109 11.8591 16.5768 11.8585 16.6432C11.858 16.7095 11.8442 16.7752 11.818 16.8361C11.7918 16.8971 11.7537 16.9523 11.7059 16.9984L10.999 17.7054C10.9047 17.7964 10.7784 17.8468 10.6473 17.8457C10.5162 17.8446 10.3908 17.792 10.2981 17.6993C10.2054 17.6066 10.1529 17.4812 10.1517 17.3501C10.1515 17.3272 10.1529 17.3044 10.1558 17.2819C10.1785 17.1058 10.1913 16.8978 10.0657 16.7723Z" fill="url(#paint0_linear_3_5832)"/>
<defs>
<linearGradient id="paint0_linear_3_5832" x1="1.93757e-08" y1="15.6" x2="11.5332" y2="15.5518" gradientUnits="userSpaceOnUse">
<stop stop-color="#27B1E3"/>
<stop offset="1" stop-color="#2CD880"/>
</linearGradient>
</defs>
</svg>
