<svg width="15" height="20" viewBox="0 0 15 20" fill="none" xmlns="http://www.w3.org/2000/svg">
<path id="Vector" d="M2.44444 0C1.09618 0 0 1.12109 0 2.5V17.5C0 18.8789 1.09618 20 2.44444 20H12.2222C13.5705 20 14.6667 18.8789 14.6667 17.5V11.1389C14.6667 8.43883 12.4778 6.25 9.77778 6.25C9.10174 6.25 8.55556 5.69141 8.55556 5C8.55556 2.23858 6.31698 0 3.55556 0H2.44444ZM12.2611 2.53972C11.3537 1.61174 9.77778 2.25416 9.77778 3.55203C9.77778 4.35172 10.4261 5 11.2258 5C12.5079 5 13.1575 3.45649 12.2611 2.53972ZM4.27778 10H10.3889C10.725 10 11 10.2812 11 10.625C11 10.9688 10.725 11.25 10.3889 11.25H4.27778C3.94167 11.25 3.66667 10.9688 3.66667 10.625C3.66667 10.2812 3.94167 10 4.27778 10ZM4.27778 12.5H10.3889C10.725 12.5 11 12.7812 11 13.125C11 13.4688 10.725 13.75 10.3889 13.75H4.27778C3.94167 13.75 3.66667 13.4688 3.66667 13.125C3.66667 12.7812 3.94167 12.5 4.27778 12.5ZM4.27778 15H10.3889C10.725 15 11 15.2812 11 15.625C11 15.9688 10.725 16.25 10.3889 16.25H4.27778C3.94167 16.25 3.66667 15.9688 3.66667 15.625C3.66667 15.2812 3.94167 15 4.27778 15Z" fill="url(#paint0_linear_3_5793)"/>
<defs>
<linearGradient id="paint0_linear_3_5793" x1="2.27362e-08" y1="15.6" x2="13.5335" y2="15.5336" gradientUnits="userSpaceOnUse">
<stop stop-color="#27B1E3"/>
<stop offset="1" stop-color="#2CD880"/>
</linearGradient>
</defs>
</svg>
