<svg width="12" height="15" viewBox="0 0 12 15" fill="none" xmlns="http://www.w3.org/2000/svg">
<path id="Vector" d="M10.3125 0H0.9375C0.68886 0 0.450403 0.098772 0.274587 0.274587C0.098772 0.450403 0 0.68886 0 0.9375V14.0625C0 14.3111 0.098772 14.5496 0.274587 14.7254C0.450403 14.9012 0.68886 15 0.9375 15H10.3125C10.5611 15 10.7996 14.9012 10.9754 14.7254C11.1512 14.5496 11.25 14.3111 11.25 14.0625V0.9375C11.25 0.68886 11.1512 0.450403 10.9754 0.274587C10.7996 0.098772 10.5611 0 10.3125 0ZM3.28125 11.25H2.34375V10.3125H3.28125V11.25ZM3.28125 9.375H2.34375V8.4375H3.28125V9.375ZM3.28125 7.5H2.34375V6.5625H3.28125V7.5ZM3.28125 5.625H2.34375V4.6875H3.28125V5.625ZM3.28125 3.75H2.34375V2.8125H3.28125V3.75ZM8.90625 11.25H4.21875V10.3125H8.90625V11.25ZM8.90625 9.375H4.21875V8.4375H8.90625V9.375ZM8.90625 7.5H4.21875V6.5625H8.90625V7.5ZM8.90625 5.625H4.21875V4.6875H8.90625V5.625ZM8.90625 3.75H4.21875V2.8125H8.90625V3.75Z" fill="url(#paint0_linear_3_5867)"/>
<defs>
<linearGradient id="paint0_linear_3_5867" x1="-1.32353" y1="7.38462" x2="16.4285" y2="7.39128" gradientUnits="userSpaceOnUse">
<stop stop-color="#2CD880"/>
<stop offset="0.494792" stop-color="#11CFD9"/>
</linearGradient>
</defs>
</svg>
