<svg width="15" height="14" viewBox="0 0 15 14" fill="none" xmlns="http://www.w3.org/2000/svg">
<path d="M7.77109 4.52881C7.1167 4.52881 6.48911 4.78913 6.02639 5.25249C5.56367 5.71586 5.30371 6.34432 5.30371 6.99962C5.30371 7.65492 5.56367 8.28337 6.02639 8.74674C6.48911 9.21011 7.1167 9.47042 7.77109 9.47042C8.42548 9.47042 9.05306 9.21011 9.51579 8.74674C9.97851 8.28337 10.2385 7.65492 10.2385 6.99962C10.2385 6.34432 9.97851 5.71586 9.51579 5.25249C9.05306 4.78913 8.42548 4.52881 7.77109 4.52881Z" fill="#11CFD9"/>
<path fill-rule="evenodd" clip-rule="evenodd" d="M3.80007 0.219693C6.43904 -0.0732308 9.10225 -0.0732308 11.7412 0.219693C13.1829 0.380865 14.3453 1.51744 14.5146 2.96647C14.8275 5.64609 14.8275 8.3531 14.5146 11.0327C14.3453 12.4817 13.1829 13.6183 11.742 13.7802C9.10276 14.0733 6.43929 14.0733 3.80007 13.7802C2.35836 13.6183 1.19604 12.4817 1.02674 11.0335C0.713744 8.3536 0.713744 5.64634 1.02674 2.96647C1.19604 1.51744 2.35836 0.380865 3.80007 0.219693ZM11.5666 2.4381C11.3653 2.4381 11.1722 2.5182 11.0298 2.66077C10.8874 2.80334 10.8074 2.99672 10.8074 3.19835C10.8074 3.39998 10.8874 3.59335 11.0298 3.73592C11.1722 3.8785 11.3653 3.9586 11.5666 3.9586C11.768 3.9586 11.9611 3.8785 12.1034 3.73592C12.2458 3.59335 12.3258 3.39998 12.3258 3.19835C12.3258 2.99672 12.2458 2.80334 12.1034 2.66077C11.9611 2.5182 11.768 2.4381 11.5666 2.4381ZM4.16448 6.99959C4.16448 6.04185 4.54441 5.12333 5.2207 4.4461C5.89699 3.76887 6.81423 3.38841 7.77065 3.38841C8.72706 3.38841 9.6443 3.76887 10.3206 4.4461C10.9969 5.12333 11.3768 6.04185 11.3768 6.99959C11.3768 7.95733 10.9969 8.87585 10.3206 9.55308C9.6443 10.2303 8.72706 10.6108 7.77065 10.6108C6.81423 10.6108 5.89699 10.2303 5.2207 9.55308C4.54441 8.87585 4.16448 7.95733 4.16448 6.99959Z" fill="#11CFD9"/>
</svg>
