<svg width="16" height="12" viewBox="0 0 16 12" fill="none" xmlns="http://www.w3.org/2000/svg">
<path d="M15.4163 1.42453C14.8645 1.66897 14.2794 1.82955 13.6802 1.90096C14.3115 1.52238 14.7838 0.926919 15.0092 0.225505C14.4163 0.578841 13.7663 0.826466 13.0895 0.960415C12.6344 0.472825 12.0312 0.149453 11.3737 0.040572C10.7162 -0.0683095 10.0411 0.0434003 9.45351 0.358334C8.86591 0.673268 8.39868 1.17378 8.12445 1.78206C7.85021 2.39034 7.78435 3.07231 7.93709 3.72194C6.73463 3.66169 5.55826 3.34886 4.48437 2.80375C3.41049 2.25864 2.4631 1.49344 1.70373 0.557844C1.43497 1.02011 1.29374 1.54561 1.29449 2.08052C1.29449 3.13039 1.82882 4.0579 2.63935 4.60094C2.15926 4.58577 1.68974 4.45594 1.26991 4.22226V4.25918C1.26989 4.95852 1.51143 5.63634 1.95357 6.17768C2.39571 6.71901 3.01122 7.09054 3.69572 7.22924C3.25007 7.35031 2.78273 7.36813 2.32917 7.28137C2.52216 7.88334 2.89836 8.40978 3.40505 8.78695C3.91175 9.16413 4.52357 9.37315 5.15482 9.38473C4.52748 9.87814 3.80915 10.2429 3.04094 10.458C2.27272 10.6732 1.46968 10.7346 0.677734 10.6388C2.05999 11.5289 3.66904 12.0015 5.31245 12C10.8755 12 13.9167 7.38563 13.9167 3.38381C13.9167 3.25348 13.9138 3.1217 13.908 2.9921C14.4997 2.56372 15.0105 2.03242 15.4163 1.42453Z" fill="#11CFD9"/>
</svg>
