<svg width="15" height="10" viewBox="0 0 15 10" fill="none" xmlns="http://www.w3.org/2000/svg">
<path d="M6.44072 7.14286L10.1427 5L6.44072 2.85714V7.14286ZM14.6864 1.55C14.7791 1.88571 14.8433 2.33571 14.8861 2.90714C14.9361 3.47857 14.9575 3.97143 14.9575 4.4L15.0002 5C15.0002 6.56429 14.8861 7.71429 14.6864 8.45C14.5081 9.09286 14.0944 9.50714 13.4524 9.68571C13.1172 9.77857 12.5037 9.84286 11.5622 9.88571C10.6349 9.93571 9.78607 9.95714 9.00145 9.95714L7.86731 10C4.87861 10 3.01691 9.88571 2.28222 9.68571C1.64026 9.50714 1.22655 9.09286 1.04822 8.45C0.955496 8.11429 0.8913 7.66429 0.848502 7.09286C0.798571 6.52143 0.777173 6.02857 0.777173 5.6L0.734375 5C0.734375 3.43571 0.848502 2.28571 1.04822 1.55C1.22655 0.907143 1.64026 0.492857 2.28222 0.314286C2.61747 0.221429 3.2309 0.157143 4.17245 0.114286C5.09973 0.0642856 5.94855 0.0428571 6.73317 0.0428571L7.86731 0C10.856 0 12.7177 0.114286 13.4524 0.314286C14.0944 0.492857 14.5081 0.907143 14.6864 1.55Z" fill="#11CFD9"/>
</svg>
